<svg xmlns="http://www.w3.org/2000/svg" viewBox="0 0 800 350" role="img" aria-label="Stars forging elements inside us">
  <defs>
    <radialGradient id="bg" cx="50%" cy="50%" r="75%">
      <stop offset="0%" stop-color="#06302B"/>
      <stop offset="100%" stop-color="#032221"/>
    </radialGradient>
    <radialGradient id="star" cx="50%" cy="50%" r="50%">
      <stop offset="0%" stop-color="#00DF81" stop-opacity="1"/>
      <stop offset="60%" stop-color="#2CC295" stop-opacity="0.6"/>
      <stop offset="100%" stop-color="#2CC295" stop-opacity="0"/>
    </radialGradient>
  </defs>
  <rect width="800" height="350" fill="url(#bg)"/>

  <g fill="#AAC8C4">
    <circle cx="60" cy="40" r="1.2"/>
    <circle cx="120" cy="80" r="0.9"/>
    <circle cx="200" cy="30" r="1.1"/>
    <circle cx="260" cy="70" r="0.8"/>
    <circle cx="340" cy="50" r="1.4"/>
    <circle cx="420" cy="90" r="0.9"/>
    <circle cx="500" cy="40" r="1.1"/>
    <circle cx="580" cy="70" r="0.8"/>
    <circle cx="650" cy="30" r="1.3"/>
    <circle cx="720" cy="60" r="0.9"/>
    <circle cx="90" cy="260" r="1.0"/>
    <circle cx="160" cy="290" r="0.8"/>
    <circle cx="240" cy="310" r="1.2"/>
    <circle cx="320" cy="280" r="0.9"/>
    <circle cx="480" cy="300" r="1.1"/>
    <circle cx="560" cy="290" r="0.9"/>
    <circle cx="640" cy="280" r="1.0"/>
    <circle cx="710" cy="310" r="0.8"/>
  </g>

  <circle cx="400" cy="175" r="90" fill="url(#star)"/>
  <circle cx="400" cy="175" r="28" fill="#00DF81"/>
  <circle cx="400" cy="175" r="14" fill="#F1F7F6"/>

  <g fill="none" stroke="#2CC295" stroke-opacity="0.5" stroke-dasharray="4 4">
    <ellipse cx="400" cy="175" rx="160" ry="50"/>
    <ellipse cx="400" cy="175" rx="220" ry="85"/>
    <ellipse cx="400" cy="175" rx="280" ry="120"/>
  </g>

  <circle cx="560" cy="175" r="6" fill="#00DF81"/>
  <circle cx="240" cy="175" r="4" fill="#2CC295"/>
  <circle cx="620" cy="240" r="5" fill="#AAC8C4"/>
  <circle cx="180" cy="100" r="4" fill="#F1F7F6"/>

  <g stroke="#2CC295" stroke-width="1" fill="none">
    <path d="M50 320 Q 200 260 400 300 T 760 310" stroke-opacity="0.6"/>
  </g>
  <g fill="#00DF81">
    <circle cx="150" cy="295" r="3"/>
    <circle cx="300" cy="278" r="3"/>
    <circle cx="500" cy="304" r="3"/>
    <circle cx="680" cy="312" r="3"/>
  </g>
</svg>
