<svg xmlns="http://www.w3.org/2000/svg" viewBox="0 0 800 350" role="img" aria-label="Desert caravan with camels and tents under a vast sky">
  <defs>
    <linearGradient id="sky15" x1="0" y1="0" x2="0" y2="1">
      <stop offset="0%"  stop-color="#2D1C7F"/>
      <stop offset="60%" stop-color="#7546E8"/>
      <stop offset="100%" stop-color="#C8B3F6"/>
    </linearGradient>
    <linearGradient id="dune15" x1="0" y1="0" x2="0" y2="1">
      <stop offset="0%"  stop-color="#4A2EB0"/>
      <stop offset="100%" stop-color="#1D1450"/>
    </linearGradient>
    <radialGradient id="sun15" cx="50%" cy="50%" r="50%">
      <stop offset="0%"  stop-color="#FFE3B0" stop-opacity="1"/>
      <stop offset="60%" stop-color="#FFB66E" stop-opacity="0.6"/>
      <stop offset="100%" stop-color="#FFB66E" stop-opacity="0"/>
    </radialGradient>
  </defs>

  <rect width="800" height="220" fill="url(#sky15)"/>
  <circle cx="630" cy="120" r="65" fill="url(#sun15)"/>
  <circle cx="630" cy="120" r="22" fill="#FFE3B0"/>

  <g fill="#FFFFFF" opacity="0.7">
    <circle cx="80" cy="30" r="1.2"/>
    <circle cx="160" cy="60" r="0.8"/>
    <circle cx="240" cy="35" r="1.1"/>
    <circle cx="320" cy="55" r="0.9"/>
    <circle cx="420" cy="40" r="1"/>
    <circle cx="490" cy="80" r="0.8"/>
  </g>

  <path d="M0 220 Q 200 190, 380 215 T 800 200 L 800 250 L 0 250 Z" fill="#3A2596" opacity="0.85"/>
  <path d="M0 250 Q 150 225, 320 255 Q 500 285, 680 245 Q 760 232, 800 250 L 800 350 L 0 350 Z" fill="url(#dune15)"/>
  <path d="M0 290 Q 200 265, 420 295 Q 620 320, 800 295 L 800 350 L 0 350 Z" fill="#0D0E20" opacity="0.55"/>
  <path d="M30 305 Q 240 280, 480 295 Q 660 308, 770 295" stroke="#FFFFFF" stroke-opacity="0.35" stroke-width="1.2" stroke-dasharray="3 5" fill="none"/>

  <g transform="translate(60,255)">
    <polygon points="0,30 22,0 44,30" fill="#C8B3F6" opacity="0.95"/>
    <polygon points="0,30 22,0 44,30" fill="none" stroke="#0D0E20" stroke-width="0.8"/>
    <line x1="22" y1="0" x2="22" y2="30" stroke="#7546E8" stroke-width="1"/>
  </g>
  <g transform="translate(105,260)">
    <polygon points="0,25 18,0 36,25" fill="#B0A9E5" opacity="0.95"/>
    <polygon points="0,25 18,0 36,25" fill="none" stroke="#0D0E20" stroke-width="0.7"/>
  </g>

  <g transform="translate(310,260)" stroke="#FFFFFF" stroke-width="1.4" fill="none" stroke-linecap="round" stroke-linejoin="round">
    <path d="M 0 18 Q 12 8, 24 14 Q 30 6, 36 14 Q 44 16, 48 22 L 50 26 L 44 26 L 42 32 L 38 32 L 36 26 L 14 26 L 12 32 L 8 32 L 6 26 L 0 22 Z" fill="#FFE3B0"/>
    <path d="M 0 18 Q -6 14, -8 8 L -6 6 L -2 8" fill="#FFE3B0"/>
    <circle cx="22" cy="2" r="3" fill="#0D0E20"/>
    <line x1="22" y1="5" x2="22" y2="14"/>
  </g>

  <g transform="translate(380,265) scale(0.85)" stroke="#FFFFFF" stroke-width="1.2" fill="none">
    <path d="M 0 18 Q 12 8, 24 14 Q 30 6, 36 14 Q 44 16, 48 22 L 50 26 L 44 26 L 42 32 L 38 32 L 36 26 L 14 26 L 12 32 L 8 32 L 6 26 L 0 22 Z" fill="#FFD49C"/>
    <path d="M 0 18 Q -5 14, -7 8" fill="#FFD49C"/>
  </g>

  <g transform="translate(440,270) scale(0.65)" stroke="#FFFFFF" stroke-width="1" fill="none">
    <path d="M 0 18 Q 12 8, 24 14 Q 30 6, 36 14 Q 44 16, 48 22 L 50 26 L 44 26 L 42 32 L 38 32 L 36 26 L 14 26 L 12 32 L 8 32 L 6 26 L 0 22 Z" fill="#FFC890"/>
    <path d="M 0 18 Q -5 14, -7 8" fill="#FFC890"/>
  </g>

  <g stroke="#C8B3F6" stroke-width="1" stroke-opacity="0.5" fill="none">
    <path d="M 540 240 q 30 -8, 60 0"/>
    <path d="M 530 250 q 30 -8, 60 0"/>
  </g>

  <rect x="0" y="0" width="800" height="28" fill="#0D0E20" opacity="0.55"/>
  <text x="400" y="19" fill="#FFFFFF" font-family="Playfair Display, serif" font-style="italic" font-size="13" text-anchor="middle" opacity="0.95">
    Where rain is rare, life learns to walk.
  </text>
</svg>
